# xmcd
#
# Track frame offsets: 
#        150
#        20025
#        41287
#        60000
#        80325
#        101737
#        122962
#        147675
#        170437
#        195637
#        217462
#        240112
#        262462
#        285712
#        306450
#
# Disc length: 4434 seconds
#
# Revision: 11
# Processed by: cddbd v1.5.2PL0 Copyright (c) Steve Scherf et al.
# Submitted via: ExactAudioCopy v1.0b3
#
DISCID=e511500f
DTITLE=浜崎あゆみ Ayumi Hamasaki - A Complete 〜All Singles〜 (Disc2)
DYEAR=2008
DGENRE=J-Pop
TTITLE0=Seasons
TTITLE1=Surreal
TTITLE2=Audience
TTITLE3=M
TTITLE4=Evolution
TTITLE5=Never Ever 
TTITLE6=Endless Sorrow
TTITLE7=Unite!
TTITLE8=Dearest
TTITLE9=Daybreak 
TTITLE10=Free and Easy 
TTITLE11=Independent 
TTITLE12=Voyage
TTITLE13=Ourselves
TTITLE14=Forgiveness 
EXTD=YEAR: 2008
EXTT0=
EXTT1=
EXTT2=
EXTT3=
EXTT4=
EXTT5=
EXTT6=
EXTT7=
EXTT8=
EXTT9=
EXTT10=
EXTT11=
EXTT12=
EXTT13=
EXTT14=
PLAYORDER=
